<?xml version="1.0" standalone="no"?>
<!DOCTYPE svg PUBLIC "-//W3C//DTD SVG 20010904//EN"
 "http://www.w3.org/TR/2001/REC-SVG-20010904/DTD/svg10.dtd">
<svg version="1.0" xmlns="http://www.w3.org/2000/svg"
 width="800.000000pt" height="800.000000pt" viewBox="0 0 800.000000 800.000000"
 preserveAspectRatio="xMidYMid meet">
<metadata>
Created by potrace 1.14, written by Peter Selinger 2001-2017
</metadata>
<g transform="translate(0.000000,800.000000) scale(0.100000,-0.100000)"
fill="#000000" stroke="none">
<path d="M4000 6123 c-853 -64 -1593 -355 -2011 -790 -234 -244 -341 -485
-340 -768 0 -279 118 -533 361 -775 489 -489 1354 -780 2319 -780 214 0 241 6
241 55 0 13 -27 189 -60 391 -43 260 -65 373 -77 386 -13 15 -32 18 -112 18
-217 0 -477 47 -666 121 -363 141 -561 370 -542 627 10 134 101 283 235 385
241 185 593 287 982 287 618 0 1136 -269 1210 -627 7 -34 19 -58 33 -68 19
-13 112 -15 707 -15 799 0 736 -8 726 99 -3 36 -13 93 -21 126 -177 691 -1099
1224 -2290 1325 -109 9 -587 11 -695 3z"/>
<path d="M3450 4982 l-25 -20 65 -388 c49 -297 69 -393 82 -406 15 -15 36 -18
123 -18 355 0 722 -105 945 -270 212 -157 301 -362 242 -557 -149 -490 -1073
-744 -1811 -498 -344 116 -551 303 -605 547 -14 61 29 58 -729 58 -807 0 -743
9 -733 -99 9 -101 41 -205 101 -327 68 -141 144 -242 282 -375 393 -379 1003
-628 1773 -724 170 -22 666 -31 845 -16 539 44 980 156 1380 350 269 131 450
255 620 426 483 488 478 1090 -15 1574 -392 385 -1027 645 -1800 737 -78 9
-258 18 -425 21 -281 5 -291 5 -315 -15z"/>
</g>
</svg>
